<svg xmlns="http://www.w3.org/2000/svg" version="1.0" width="130" height="" viewBox="0 0 1408.000000 736.000000" preserveAspectRatio="xMidYMid meet">

<g transform="translate(0.000000,736.000000) scale(0.100000,-0.100000)" fill="#000000" stroke="none">
<path d="M7628 6523 c7 -3 16 -2 19 1 4 3 -2 6 -13 5 -11 0 -14 -3 -6 -6z"></path>
<path d="M7256 6194 c-3 -9 -6 -33 -6 -55 0 -35 3 -39 25 -39 24 0 25 3 25 55 0 47 -3 55 -19 55 -10 0 -22 -7 -25 -16z"></path>
<path d="M8125 5984 c-26 -59 -25 -74 4 -74 12 0 24 15 37 47 11 27 20 51 22 55 2 4 -6 12 -17 18 -19 10 -23 6 -46 -46z"></path>
<path d="M6386 6017 c-17 -13 -17 -16 8 -65 24 -46 29 -51 46 -42 25 13 25 17 0 74 -23 50 -27 53 -54 33z"></path>
<path d="M7271 5840 c-7 -36 -17 -78 -21 -95 -4 -16 -18 -85 -31 -153 l-23 -123 26 -25 c34 -34 90 -35 125 -2 29 27 28 50 -7 198 -13 52 -30 133 -39 180 l-17 85 -13 -65z"></path>
<path d="M8385 4630 c-12 -19 -86 -406 -126 -650 -4 -30 -19 -113 -33 -185 -13 -71 -36 -195 -50 -275 -15 -80 -30 -158 -34 -175 l-8 -30 -753 -6 c-414 -4 -755 -10 -759 -13 -3 -4 2 -19 11 -35 22 -38 47 -136 47 -187 0 -32 4 -43 18 -46 9 -2 372 -2 805 0 723 4 789 5 794 20 34 98 78 169 145 236 133 133 285 192 424 167 177 -33 302 -169 319 -346 l7 -74 35 -7 c20 -4 82 -4 139 -1 159 8 185 31 200 182 8 73 0 89 -46 99 -35 7 -37 20 -16 111 21 87 64 330 72 400 6 59 5 63 -45 159 -68 129 -331 542 -373 585 -18 19 -53 43 -78 55 -42 19 -66 21 -366 24 -241 3 -324 1 -329 -8z m678 -192 c26 -35 242 -390 270 -445 10 -18 17 -41 17 -53 0 -20 -4 -20 -390 -20 -355 0 -391 2 -397 17 -4 9 1 66 11 127 9 61 26 174 38 251 12 77 27 143 32 147 6 4 97 8 203 8 l192 0 24 -32z"></path>
<path d="M6220 3339 c-30 -5 -78 -20 -108 -34 -66 -30 -160 -123 -198 -196 -25 -48 -28 -65 -29 -149 0 -82 3 -102 25 -143 39 -77 116 -126 222 -142 52 -8 143 12 210 46 63 31 148 124 186 201 27 58 32 78 32 143 0 57 -5 86 -21 118 -41 83 -112 138 -194 152 -22 4 -47 8 -55 10 -8 1 -40 -2 -70 -6z m103 -217 c26 -24 47 -66 47 -97 0 -40 -40 -100 -86 -129 -60 -38 -122 -36 -169 5 -32 28 -35 36 -35 83 0 65 31 115 92 145 50 26 119 23 151 -7z"></path>
<path d="M8735 3344 c-181 -47 -294 -153 -330 -308 -24 -102 -3 -200 57 -266 106 -117 283 -125 439 -19 108 73 171 183 177 311 3 65 0 85 -18 124 -28 56 -77 107 -131 135 -41 20 -152 34 -194 23z m81 -210 c46 -22 68 -65 61 -122 -6 -54 -31 -90 -83 -119 -155 -89 -278 95 -143 211 57 48 107 57 165 30z"></path>
<path d="M5520 3301 c-23 -6 -42 -32 -54 -73 -3 -10 -18 -20 -33 -23 -47 -10 -57 -20 -76 -71 -24 -68 -19 -96 18 -106 17 -5 112 -6 212 -2 l181 7 22 66 c13 36 42 94 66 129 25 35 42 68 39 73 -7 10 -337 11 -375 0z"></path>
<path d="M5140 2089 c-116 -20 -233 -106 -281 -207 -40 -86 -35 -250 9 -322 82 -133 198 -194 367 -193 135 2 245 57 312 157 45 66 56 115 51 226 -5 101 -19 144 -70 211 -73 95 -245 152 -388 128z m176 -190 c59 -36 84 -83 84 -159 0 -114 -44 -177 -141 -200 -64 -16 -118 3 -172 58 -41 42 -55 97 -43 175 8 51 62 121 110 143 41 19 118 11 162 -17z"></path>
<path d="M7562 2070 c-163 -59 -265 -234 -232 -399 20 -101 64 -174 137 -227 67 -49 146 -72 248 -73 196 -2 335 99 381 277 18 66 17 104 0 167 -32 115 -98 193 -206 244 -75 35 -246 41 -328 11z m243 -168 c16 -10 43 -37 59 -59 25 -36 29 -51 29 -110 0 -103 -44 -168 -132 -194 -141 -42 -273 118 -217 264 41 109 164 155 261 99z"></path>
<path d="M9211 2069 c-29 -10 -70 -31 -90 -45 -40 -30 -90 -84 -91 -98 0 -5 -7 -17 -15 -26 -18 -20 -45 -123 -45 -173 0 -109 80 -244 180 -304 70 -42 141 -56 255 -51 132 6 217 51 287 153 48 71 61 114 62 210 0 82 -2 95 -31 150 -49 95 -127 159 -232 191 -67 20 -213 17 -280 -7z m238 -164 c158 -81 114 -347 -61 -371 -63 -9 -145 28 -177 80 -20 32 -23 47 -19 126 3 83 5 91 33 121 17 17 44 37 60 45 40 18 129 17 164 -1z"></path>
<path d="M4243 2073 c-10 -4 -13 -83 -13 -349 l0 -344 105 0 105 0 2 268 3 267 160 5 160 5 9 62 c14 100 33 93 -261 92 -142 0 -264 -3 -270 -6z"></path>
<path d="M5748 2074 c-5 -4 -8 -162 -8 -351 l0 -343 213 0 c233 0 311 9 366 44 51 33 67 55 75 103 13 88 -19 160 -89 199 -19 11 -18 13 16 51 88 97 47 245 -78 284 -43 13 -484 25 -495 13z m391 -158 c26 -23 27 -66 3 -96 -15 -18 -31 -23 -88 -27 -100 -8 -114 2 -114 76 0 32 3 61 8 65 4 4 44 6 88 4 63 -2 87 -7 103 -22z m24 -270 c37 -25 38 -76 0 -106 -23 -18 -38 -20 -122 -18 l-96 3 -3 58 c-4 84 3 90 108 85 60 -3 93 -9 113 -22z"></path>
<path d="M6512 1733 l3 -348 108 -3 107 -3 0 124 c0 82 4 127 12 135 13 13 202 17 232 6 13 -5 16 -27 16 -135 l0 -129 105 0 c101 0 105 1 109 23 2 12 4 168 3 347 l-2 325 -105 0 -105 0 -5 -125 -5 -125 -125 0 -125 0 -5 125 -5 125 -108 3 -107 3 2 -348z"></path>
<path d="M8235 2069 c-3 -8 -4 -165 -3 -349 l3 -335 250 0 c245 0 251 1 297 24 61 31 88 60 99 108 20 86 -8 156 -81 205 l-25 16 32 34 c38 40 53 76 53 129 0 51 -20 89 -62 121 -55 42 -100 50 -335 55 -184 5 -224 3 -228 -8z m397 -156 c23 -21 23 -65 0 -93 -14 -17 -32 -23 -84 -27 -36 -3 -78 -3 -92 1 -25 6 -26 10 -26 70 0 76 1 77 110 70 48 -3 81 -11 92 -21z m25 -275 c28 -26 29 -58 4 -89 -18 -22 -26 -24 -123 -24 l-103 0 0 65 c0 60 2 65 25 72 14 4 58 5 99 3 59 -4 80 -10 98 -27z"></path>
<path d="M9842 2003 l3 -78 133 -3 c105 -2 132 -5 132 -17 0 -7 -25 -38 -55 -69 -52 -52 -55 -58 -55 -104 l0 -49 78 -5 c93 -5 132 -26 132 -68 0 -32 -21 -57 -59 -72 -40 -15 -151 -12 -201 7 -25 9 -52 19 -60 21 -11 4 -24 -14 -47 -66 l-31 -70 28 -15 c57 -29 144 -45 250 -45 125 0 191 16 252 63 58 44 72 77 73 163 0 62 -3 76 -30 114 -21 30 -45 50 -77 64 -27 11 -48 27 -48 35 0 8 29 45 65 82 64 66 65 68 65 122 0 41 -4 56 -16 61 -9 3 -132 6 -275 6 l-260 0 3 -77z"></path>
</g>
</svg>